<svg width="20" height="22" viewBox="0 0 20 22" fill="none" xmlns="http://www.w3.org/2000/svg">
<path d="M3.33333 9.66663V8.91663H2.58333V9.66663H3.33333ZM8.66667 9.66663V8.91663H7.91667V9.66663H8.66667ZM8.66667 15H7.91667V15.75H8.66667V15ZM18 5.66663H18.75V5.35597L18.5303 5.1363L18 5.66663ZM14 1.66663L14.5303 1.1363L14.3107 0.916626H14V1.66663ZM3.33333 10.4166H4.66667V8.91663H3.33333V10.4166ZM4.08333 15.6666V12.3333H2.58333V15.6666H4.08333ZM4.08333 12.3333V9.66663H2.58333V12.3333H4.08333ZM4.66667 11.5833H3.33333V13.0833H4.66667V11.5833ZM5.25 11C5.25 11.3221 4.98883 11.5833 4.66667 11.5833V13.0833C5.81726 13.0833 6.75 12.1506 6.75 11H5.25ZM4.66667 10.4166C4.98883 10.4166 5.25 10.6778 5.25 11H6.75C6.75 9.84937 5.81726 8.91663 4.66667 8.91663V10.4166ZM7.91667 9.66663V15H9.41667V9.66663H7.91667ZM8.66667 15.75H10V14.25H8.66667V15.75ZM12.0833 13.6666V11H10.5833V13.6666H12.0833ZM10 8.91663H8.66667V10.4166H10V8.91663ZM12.0833 11C12.0833 9.84937 11.1506 8.91663 10 8.91663V10.4166C10.3222 10.4166 10.5833 10.6778 10.5833 11H12.0833ZM10 15.75C11.1506 15.75 12.0833 14.8172 12.0833 13.6666H10.5833C10.5833 13.9888 10.3222 14.25 10 14.25V15.75ZM13.25 8.99996V15.6666H14.75V8.99996H13.25ZM14 10.4166H17.3333V8.91663H14V10.4166ZM14 13.0833H16V11.5833H14V13.0833ZM2.75 7.66663V2.99996H1.25V7.66663H2.75ZM17.25 5.66663V7.66663H18.75V5.66663H17.25ZM3.33333 2.41663H14V0.916626H3.33333V2.41663ZM13.4697 2.19696L17.4697 6.19696L18.5303 5.1363L14.5303 1.1363L13.4697 2.19696ZM2.75 2.99996C2.75 2.67779 3.01117 2.41663 3.33333 2.41663V0.916626C2.18274 0.916626 1.25 1.84937 1.25 2.99996H2.75ZM1.25 17V19H2.75V17H1.25ZM3.33333 21.0833H16.6667V19.5833H3.33333V21.0833ZM18.75 19V17H17.25V19H18.75ZM16.6667 21.0833C17.8173 21.0833 18.75 20.1506 18.75 19H17.25C17.25 19.3221 16.9888 19.5833 16.6667 19.5833V21.0833ZM1.25 19C1.25 20.1506 2.18274 21.0833 3.33333 21.0833V19.5833C3.01117 19.5833 2.75 19.3221 2.75 19H1.25Z" fill="#FF6600"/>
</svg>
