<svg width="101" height="69" viewBox="0 0 101 69" fill="none" xmlns="http://www.w3.org/2000/svg">
<path d="M73.293 26.5831C73.4207 26.4565 73.5439 26.3344 73.6625 26.2168C73.5439 26.3344 73.4207 26.4565 73.293 26.5831Z" fill="#0048FF"/>
<path d="M61.8203 62.5129L70.2066 54.1973L61.8203 62.5129Z" fill="#0048FF"/>
<path d="M44.6302 47.9307H48.7777C49.0424 47.6684 49.1929 47.5192 49.4621 47.2524V44.3765C49.1975 44.1142 49.0469 43.965 48.7777 43.6982H42.4219V48.8712H44.6302V47.9307ZM44.6302 45.0277H47.2675V46.5832H44.6302V45.0277Z" fill="white"/>
<path d="M50.8133 47.9307H53.4916V48.8712H55.7V47.9307H58.3783C58.6429 47.6684 58.7935 47.5192 59.0627 47.2524V44.3765C58.7981 44.1142 58.6475 43.965 58.3783 43.6982H55.7H53.4916H50.8133C50.5487 43.9605 50.3981 44.1097 50.1289 44.3765V47.2524C50.3981 47.5192 50.5441 47.6684 50.8133 47.9307ZM55.7 45.0277H57.0825V46.5832H55.7V45.0277ZM52.1137 45.0277H53.4916V46.5832H52.1137V45.0277Z" fill="white"/>
<path d="M75.5766 24.3223C75.0473 24.8468 74.6184 25.2718 74.1987 25.6879C74.08 25.8054 73.9614 25.923 73.8428 26.0406C73.7835 26.0993 73.7242 26.1581 73.6648 26.2169C73.5462 26.3345 73.423 26.4566 73.2953 26.5832C73.1675 26.7098 73.0397 26.8364 72.8983 26.9766C72.7614 27.1122 72.6154 27.2569 72.4648 27.4061V40.7545C75.7226 41.4147 78.8481 42.2151 81.8184 43.1421V40.3611C82.7902 40.4968 83.7165 40.6777 84.6199 40.8992C84.921 40.9716 85.2176 41.0485 85.5096 41.1298V44.3087C89.4062 45.8868 92.9423 47.4016 96.5285 49.0656L96.524 24.3268H75.5766V24.3223ZM85.5142 37.3994C85.1537 37.3315 84.7796 37.2682 84.3963 37.2094C83.8853 37.128 83.356 37.0512 82.8039 36.9788C82.4845 36.9381 82.156 36.9019 81.8184 36.8658V29.0249C82.1651 28.6813 82.3614 28.4869 82.7127 28.1387H85.5096V37.3994H85.5142Z" fill="white"/>
<path d="M68.7509 40.0672V24.3223H55.9388C55.2088 26.5922 54.4651 28.835 53.7168 31.0688C53.2377 29.8344 52.7632 28.6089 52.2887 27.3835C51.8826 26.2079 51.4856 25.1859 51.1069 24.3223H38.3633V39.1357C41.1693 38.8554 44.0393 38.6745 46.964 38.6022V29.2239C46.964 29.2239 49.3183 35.3555 50.5685 38.566C52.7175 38.575 54.8346 38.6429 56.9244 38.765C58.0742 35.5002 60.2049 29.1787 60.2049 29.1787V39.0046C63.1296 39.2488 65.9813 39.606 68.7509 40.0672Z" fill="white"/>
<path d="M22.0436 24.3229C21.2269 27.1988 20.4102 30.1786 19.598 33.2716C19.1646 31.7161 18.7357 30.1244 18.3022 28.492C17.9326 26.9184 17.5676 25.5257 17.2163 24.3229H4.47266V48.9397C7.0734 47.4791 9.92509 46.1452 12.9912 44.9559V31.6392C12.9912 31.6392 15.0627 39.8101 16.1532 43.8029C18.2201 43.102 20.3691 42.4599 22.5957 41.8856C23.8322 37.4859 26.1044 29.9525 26.1044 29.9525V41.0536C28.7873 40.4703 31.566 39.9774 34.4222 39.5885V24.3184H22.0436V24.3229Z" fill="white"/>
<path d="M53.499 45.0273H52.1211V46.5829H53.499V45.0273Z" fill="black"/>
<path d="M47.2701 45.0273H44.6328V46.5829H47.2701V45.0273Z" fill="black"/>
<path d="M57.0934 45.0273H55.7109V46.5829H57.0934V45.0273Z" fill="black"/>
<path d="M81.8164 29.0269V36.8677C82.1495 36.9039 82.478 36.9446 82.802 36.9808C83.354 37.0486 83.8833 37.13 84.3943 37.2114C84.7776 37.2747 85.1517 37.3335 85.5122 37.4013V28.1406H82.7153C82.3594 28.4888 82.1632 28.6787 81.8164 29.0269Z" fill="black"/>
<path d="M101 49.0572L100.995 24.3183V19.8869H96.524H84.2868L64.22 0H35.694L15.6273 19.8869H4.47145H0V24.3183V48.9351V56.7262C5.15129 53.5338 11.7626 50.1831 14.6189 49.0753L15.8645 48.5914L35.694 68.2432H64.22L84.1225 48.5191C87.9598 50.0746 94.4297 53.1539 100.995 56.6719L101 49.0572ZM50.8194 47.9312C50.5547 47.669 50.4042 47.5198 50.135 47.253V44.3771C50.3996 44.1148 50.5502 43.9656 50.8194 43.6988H53.4977H55.706H58.3843C58.649 43.9611 58.7995 44.1103 59.0687 44.3771V47.253C58.8041 47.5152 58.6535 47.6645 58.3843 47.9312H55.706V48.8718H53.4977V47.9312H50.8194ZM42.4194 43.7034H48.7753C49.0399 43.9656 49.1905 44.1148 49.4597 44.3816V47.2575C49.1951 47.5198 49.0445 47.669 48.7753 47.9358H44.6278V48.8763H42.4194V43.7034ZM56.9243 38.761C54.8346 38.6389 52.7129 38.5756 50.5684 38.562C49.3182 35.3516 46.9639 29.22 46.9639 29.22V38.5982C44.0392 38.6706 41.1693 38.856 38.3632 39.1318V24.3183H51.1068C51.4855 25.182 51.8825 26.2039 52.2886 27.3796C52.7631 28.605 53.2376 29.8304 53.7167 31.0649C54.465 28.8311 55.2041 26.5838 55.9387 24.3183H68.7508V40.0633C65.9812 39.6066 63.125 39.2494 60.2049 38.9961V29.1702C60.2003 29.1748 58.0695 35.4963 56.9243 38.761ZM12.9946 31.6437V44.9604C9.92844 46.1497 7.07675 47.4836 4.47601 48.9441V24.3274H17.2196C17.5755 25.5302 17.9405 26.9229 18.3056 28.4965C18.739 30.1289 19.1725 31.7205 19.6014 33.276C20.4135 30.1831 21.2303 27.2032 22.047 24.3274H34.4302V39.5975C31.5739 39.9819 28.7952 40.4748 26.1123 41.0626V29.9615C26.1123 29.9615 23.8356 37.4994 22.6036 41.8946C20.377 42.4689 18.228 43.1065 16.1611 43.8119C15.066 39.8146 12.9946 31.6437 12.9946 31.6437ZM85.5096 44.3048V41.1259C85.2176 41.0445 84.921 40.9676 84.6199 40.8953C83.721 40.6737 82.7902 40.4929 81.8184 40.3572V43.1381C78.8481 42.2112 75.7226 41.4108 72.4648 40.7506V27.4022C72.6154 27.253 72.7614 27.1083 72.8983 26.9726C73.0352 26.837 73.1675 26.7058 73.2953 26.5792C73.423 26.4526 73.5462 26.3305 73.6648 26.213C73.7242 26.1542 73.7835 26.0954 73.8428 26.0366C73.9614 25.919 74.08 25.8015 74.1987 25.6839C74.6139 25.2724 75.0428 24.8474 75.5766 24.3183H96.5285L96.5331 49.0572C92.9423 47.3977 89.4062 45.8783 85.5096 44.3048Z" fill="black"/>
<path d="M38.1009 5.74316L23.8242 19.8919H34.4325H36.5587L41.8286 14.6692H58.0947L63.3646 19.8919H68.7486H73.22H73.7219H75.5744H76.1037L61.827 5.74316H38.1009Z" fill="#0048FF"/>
<path d="M61.8219 62.5134L70.2127 54.1978L77.8781 46.6011C75.8294 46.0359 73.7169 45.5249 71.5678 45.0908L69.7793 44.7291L68.0089 44.4352C67.8127 44.4035 67.6165 44.3764 67.4203 44.3447L58.0942 53.5873H41.8281L32.5157 44.3583C30.6769 44.6522 28.8564 44.9959 27.0724 45.3802L25.3705 45.751L23.7233 46.1761C23.1667 46.3208 22.6146 46.47 22.0625 46.6237L38.0958 62.5134H61.8219Z" fill="#E20613"/>
</svg>
