<svg width="24" height="16" viewBox="0 0 24 16" fill="none" xmlns="http://www.w3.org/2000/svg">
<path d="M17.1837 6.23333C17.2137 6.20365 17.2426 6.17502 17.2704 6.14746C17.2426 6.17502 17.2137 6.20365 17.1837 6.23333Z" fill="#0048FF"/>
<path d="M14.495 14.6577L16.4612 12.708L14.495 14.6577Z" fill="#0048FF"/>
<path d="M10.4633 11.2374H11.4357C11.4978 11.1759 11.5331 11.141 11.5962 11.0784V10.4041C11.5341 10.3427 11.4988 10.3077 11.4357 10.2451H9.94556V11.4579H10.4633V11.2374ZM10.4633 10.5568H11.0816V10.9215H10.4633V10.5568Z" fill="white"/>
<path d="M11.915 11.2374H12.5429V11.4579H13.0607V11.2374H13.6886C13.7507 11.1759 13.786 11.141 13.8491 11.0784V10.4041C13.787 10.3427 13.7517 10.3077 13.6886 10.2451H13.0607H12.5429H11.915C11.8529 10.3066 11.8176 10.3416 11.7545 10.4041V11.0784C11.8176 11.141 11.8519 11.1759 11.915 11.2374ZM13.0607 10.5568H13.3848V10.9215H13.0607V10.5568ZM12.2199 10.5568H12.5429V10.9215H12.2199V10.5568Z" fill="white"/>
<path d="M17.7191 5.70312C17.595 5.8261 17.4944 5.92576 17.396 6.02329C17.3682 6.05086 17.3404 6.07842 17.3126 6.10599C17.2987 6.11977 17.2848 6.13355 17.2708 6.14733C17.243 6.1749 17.2142 6.20352 17.1842 6.23321C17.1542 6.26289 17.1243 6.29258 17.0911 6.32544C17.059 6.35725 17.0248 6.39117 16.9895 6.42616V9.55576C17.7533 9.71055 18.4861 9.89819 19.1825 10.1155V9.46353C19.4103 9.49533 19.6275 9.53774 19.8393 9.58969C19.9099 9.60665 19.9795 9.62467 20.0479 9.64376V10.3891C20.9615 10.759 21.7905 11.1142 22.6314 11.5043L22.6303 5.70418H17.7191V5.70312ZM20.049 8.76912C19.9645 8.75322 19.8768 8.73838 19.7869 8.72459C19.6671 8.70551 19.543 8.68749 19.4136 8.67052C19.3387 8.66098 19.2617 8.6525 19.1825 8.64402V6.8057C19.2638 6.72512 19.3098 6.67954 19.3922 6.5979H20.0479V8.76912H20.049Z" fill="white"/>
<path d="M16.1173 9.39462V5.70312H13.1135C12.9423 6.23533 12.7679 6.76117 12.5925 7.28489C12.4802 6.99547 12.3689 6.70816 12.2577 6.42086C12.1625 6.14521 12.0694 5.90562 11.9806 5.70312H8.9928V9.17622C9.65069 9.11049 10.3236 9.06809 11.0093 9.05112V6.85234C11.0093 6.85234 11.5613 8.28993 11.8544 9.04264C12.3582 9.04476 12.8546 9.06067 13.3445 9.08929C13.6141 8.32385 14.1137 6.84174 14.1137 6.84174V9.14548C14.7994 9.20273 15.468 9.28648 16.1173 9.39462Z" fill="white"/>
<path d="M5.16978 5.70223C4.9783 6.3765 4.78681 7.07514 4.59639 7.8003C4.49477 7.4356 4.39421 7.06242 4.29259 6.6797C4.20594 6.31077 4.12036 5.98424 4.03798 5.70223H1.05017V11.4738C1.65993 11.1313 2.32852 10.8186 3.0474 10.5398V7.41758C3.0474 7.41758 3.53306 9.3333 3.78873 10.2694C4.27333 10.1051 4.77718 9.95455 5.29922 9.81991C5.58912 8.78837 6.12186 7.02214 6.12186 7.02214V9.62484C6.75087 9.48808 7.40235 9.37252 8.07201 9.28135V5.70117H5.16978V5.70223Z" fill="white"/>
<path d="M12.5421 10.5566H12.219V10.9213H12.5421V10.5566Z" fill="black"/>
<path d="M11.0821 10.5566H10.4637V10.9213H11.0821V10.5566Z" fill="black"/>
<path d="M13.3849 10.5566H13.0608V10.9213H13.3849V10.5566Z" fill="black"/>
<path d="M19.1823 6.80447V8.6428C19.2603 8.65128 19.3374 8.66082 19.4133 8.6693C19.5428 8.6852 19.6668 8.70429 19.7867 8.72337C19.8765 8.73821 19.9642 8.75199 20.0487 8.7679V6.59668H19.393C19.3096 6.67831 19.2636 6.72284 19.1823 6.80447Z" fill="black"/>
<path d="M23.68 11.5017L23.6789 5.70156V4.6626H22.6306H19.7615L15.0567 0H8.36866L3.66389 4.6626H1.04836H0V5.70156V11.4731V13.2998C1.20775 12.5513 2.75782 11.7657 3.42748 11.506L3.71952 11.3925L8.36866 16H15.0567L19.723 11.3756C20.6227 11.7403 22.1396 12.4622 23.6789 13.287L23.68 11.5017ZM11.9149 11.2377C11.8528 11.1763 11.8175 11.1413 11.7544 11.0787V10.4045C11.8165 10.343 11.8518 10.308 11.9149 10.2454H12.5428H13.0606H13.6885C13.7506 10.3069 13.7859 10.3419 13.849 10.4045V11.0787C13.7869 11.1402 13.7516 11.1752 13.6885 11.2377H13.0606V11.4583H12.5428V11.2377H11.9149ZM9.94547 10.2465H11.4356C11.4977 10.308 11.533 10.343 11.5961 10.4055V11.0798C11.5341 11.1413 11.4987 11.1763 11.4356 11.2388H10.4632V11.4593H9.94547V10.2465ZM13.3462 9.08773C12.8563 9.0591 12.3588 9.04426 11.856 9.04108C11.5629 8.28836 11.0109 6.85078 11.0109 6.85078V9.04956C10.3252 9.06653 9.65236 9.10999 8.99446 9.17466V5.70156H11.9823C12.0711 5.90406 12.1641 6.14365 12.2593 6.4193C12.3706 6.7066 12.4818 6.9939 12.5942 7.28333C12.7696 6.75961 12.9429 6.23271 13.1151 5.70156H16.119V9.39306C15.4697 9.28598 14.8 9.20223 14.1154 9.14286V6.83912C14.1143 6.84018 13.6147 8.32229 13.3462 9.08773ZM3.04665 7.41903V10.5412C2.32778 10.82 1.65918 11.1328 1.04943 11.4752V5.70368H4.03724C4.12068 5.98569 4.20626 6.31222 4.29184 6.68116C4.39347 7.06388 4.49509 7.43705 4.59565 7.80175C4.78606 7.0766 4.97755 6.37795 5.16903 5.70368H8.07234V9.28386C7.40267 9.37397 6.7512 9.48953 6.12218 9.62735V7.02465C6.12218 7.02465 5.58838 8.79194 5.29954 9.82242C4.77751 9.95706 4.27365 10.1065 3.78906 10.2719C3.53232 9.33475 3.04665 7.41903 3.04665 7.41903ZM20.0482 10.3875V9.6422C19.9797 9.62311 19.9102 9.60509 19.8396 9.58813C19.6289 9.53618 19.4106 9.49377 19.1828 9.46197V10.114C18.4864 9.89664 17.7536 9.70899 16.9898 9.5542V6.4246C17.0251 6.38961 17.0593 6.35569 17.0914 6.32388C17.1235 6.29208 17.1545 6.26133 17.1845 6.23165C17.2144 6.20196 17.2433 6.17334 17.2711 6.14577C17.285 6.13199 17.2989 6.11821 17.3128 6.10443C17.3407 6.07686 17.3685 6.0493 17.3963 6.02173C17.4936 5.92526 17.5942 5.8256 17.7193 5.70156H22.6316L22.6327 11.5017C21.7908 11.1126 20.9618 10.7564 20.0482 10.3875Z" fill="black"/>
<path d="M8.93258 1.34668L5.58533 4.66394H8.0725H8.571L9.80656 3.43945H13.6202L14.8558 4.66394H16.1181H17.1664H17.2841H17.7184H17.8425L14.4953 1.34668H8.93258Z" fill="#0048FF"/>
<path d="M14.4944 14.6572L16.4617 12.7076L18.2589 10.9265C17.7785 10.794 17.2833 10.6742 16.7794 10.5724L16.3601 10.4876L15.945 10.4187C15.899 10.4112 15.853 10.4049 15.807 10.3975L13.6204 12.5644H9.80677L7.62341 10.4006C7.1923 10.4696 6.76547 10.5501 6.34719 10.6402L5.94818 10.7272L5.562 10.8268C5.43149 10.8608 5.30205 10.8957 5.17261 10.9318L8.93171 14.6572H14.4944Z" fill="#E20613"/>
</svg>
